<svg xmlns="http://www.w3.org/2000/svg" xmlns:xlink="http://www.w3.org/1999/xlink" width="500" zoomAndPan="magnify" viewBox="0 0 375 374.999991" height="500" preserveAspectRatio="xMidYMid meet" version="1.0"><defs><clipPath id="487ff100f2"><path d="M 15.195312 29 L 222 29 L 222 347.664062 L 15.195312 347.664062 Z M 15.195312 29 " clip-rule="nonzero"/></clipPath><clipPath id="b3efbef9bd"><path d="M 15.195312 29 L 223 29 L 223 269 L 15.195312 269 Z M 15.195312 29 " clip-rule="nonzero"/></clipPath><clipPath id="57554627b8"><path d="M 297 27.414062 L 359.445312 27.414062 L 359.445312 91 L 297 91 Z M 297 27.414062 " clip-rule="nonzero"/></clipPath><clipPath id="fb6fb7948a"><path d="M 147 32 L 359.445312 32 L 359.445312 345 L 147 345 Z M 147 32 " clip-rule="nonzero"/></clipPath><clipPath id="37f0138450"><path d="M 147 32 L 359.445312 32 L 359.445312 267 L 147 267 Z M 147 32 " clip-rule="nonzero"/></clipPath></defs><g clip-path="url(#487ff100f2)"><path fill="#72ffff" d="M 97.160156 43.453125 L 207.925781 154.21875 C 209.039062 155.332031 210.09375 156.496094 211.089844 157.710938 C 212.089844 158.925781 213.023438 160.1875 213.898438 161.496094 C 214.769531 162.804688 215.578125 164.152344 216.320312 165.539062 C 217.0625 166.925781 217.734375 168.34375 218.335938 169.796875 C 218.9375 171.25 219.464844 172.730469 219.921875 174.234375 C 220.378906 175.738281 220.761719 177.261719 221.066406 178.804688 C 221.375 180.347656 221.605469 181.902344 221.757812 183.46875 C 221.914062 185.03125 221.988281 186.601562 221.988281 188.175781 C 221.988281 189.746094 221.914062 191.316406 221.757812 192.882812 C 221.605469 194.445312 221.375 196 221.066406 197.542969 C 220.761719 199.085938 220.378906 200.609375 219.921875 202.113281 C 219.464844 203.617188 218.9375 205.097656 218.335938 206.550781 C 217.734375 208.003906 217.0625 209.421875 216.320312 210.8125 C 215.578125 212.199219 214.769531 213.546875 213.898438 214.851562 C 213.023438 216.160156 212.089844 217.421875 211.089844 218.636719 C 210.09375 219.855469 209.039062 221.019531 207.925781 222.128906 L 97.160156 332.894531 C 66.910156 363.144531 15.171875 341.707031 15.195312 298.902344 L 15.195312 77.371094 C 15.171875 34.640625 66.910156 13.203125 97.160156 43.453125 Z M 97.160156 43.453125 " fill-opacity="1" fill-rule="nonzero"/></g><g clip-path="url(#b3efbef9bd)"><path fill="#00d7ff" d="M 97.160156 43.453125 C 67.082031 13.375 15.933594 34.394531 15.21875 76.660156 C 15.21875 76.660156 189.515625 241.574219 161.796875 268.453125 L 208.023438 222.226562 C 209.136719 221.117188 210.191406 219.953125 211.1875 218.738281 C 212.1875 217.519531 213.121094 216.257812 213.996094 214.949219 C 214.871094 213.644531 215.675781 212.296875 216.417969 210.910156 C 217.160156 209.523438 217.832031 208.101562 218.433594 206.648438 C 219.035156 205.195312 219.5625 203.714844 220.019531 202.210938 C 220.476562 200.707031 220.859375 199.183594 221.164062 197.640625 C 221.472656 196.097656 221.703125 194.542969 221.855469 192.980469 C 222.011719 191.414062 222.089844 189.84375 222.089844 188.273438 C 222.089844 186.699219 222.011719 185.128906 221.855469 183.566406 C 221.703125 182 221.472656 180.445312 221.164062 178.902344 C 220.859375 177.363281 220.476562 175.839844 220.019531 174.332031 C 219.5625 172.828125 219.035156 171.347656 218.433594 169.894531 C 217.832031 168.441406 217.160156 167.023438 216.417969 165.636719 C 215.675781 164.25 214.871094 162.902344 213.996094 161.59375 C 213.121094 160.285156 212.1875 159.023438 211.1875 157.808594 C 210.191406 156.59375 209.136719 155.429688 208.023438 154.316406 Z M 97.160156 43.453125 " fill-opacity="1" fill-rule="nonzero"/></g><g clip-path="url(#57554627b8)"><path fill="#590696" d="M 359.796875 59.15625 C 359.796875 60.1875 359.746094 61.210938 359.644531 62.234375 C 359.546875 63.257812 359.394531 64.273438 359.195312 65.28125 C 358.992188 66.289062 358.742188 67.285156 358.445312 68.269531 C 358.148438 69.25 357.800781 70.21875 357.40625 71.167969 C 357.015625 72.117188 356.574219 73.046875 356.089844 73.953125 C 355.605469 74.859375 355.078125 75.738281 354.507812 76.59375 C 353.9375 77.449219 353.324219 78.273438 352.671875 79.066406 C 352.019531 79.863281 351.332031 80.621094 350.605469 81.347656 C 349.878906 82.074219 349.117188 82.765625 348.324219 83.417969 C 347.527344 84.070312 346.703125 84.679688 345.847656 85.253906 C 344.996094 85.824219 344.113281 86.351562 343.207031 86.835938 C 342.300781 87.320312 341.371094 87.757812 340.421875 88.152344 C 339.472656 88.546875 338.507812 88.890625 337.523438 89.191406 C 336.539062 89.488281 335.542969 89.738281 334.535156 89.9375 C 333.527344 90.136719 332.511719 90.289062 331.488281 90.390625 C 330.464844 90.492188 329.441406 90.542969 328.414062 90.542969 C 327.386719 90.542969 326.359375 90.492188 325.335938 90.390625 C 324.316406 90.289062 323.300781 90.136719 322.289062 89.9375 C 321.28125 89.738281 320.285156 89.488281 319.304688 89.191406 C 318.320312 88.890625 317.351562 88.546875 316.402344 88.152344 C 315.453125 87.757812 314.527344 87.320312 313.621094 86.835938 C 312.714844 86.351562 311.832031 85.824219 310.976562 85.253906 C 310.125 84.679688 309.296875 84.070312 308.503906 83.417969 C 307.710938 82.765625 306.949219 82.074219 306.222656 81.347656 C 305.496094 80.621094 304.804688 79.863281 304.152344 79.066406 C 303.5 78.273438 302.890625 77.449219 302.320312 76.59375 C 301.75 75.738281 301.21875 74.859375 300.734375 73.953125 C 300.25 73.046875 299.8125 72.117188 299.417969 71.167969 C 299.027344 70.21875 298.679688 69.25 298.382812 68.269531 C 298.082031 67.285156 297.832031 66.289062 297.632812 65.28125 C 297.433594 64.273438 297.28125 63.257812 297.179688 62.234375 C 297.082031 61.210938 297.03125 60.1875 297.03125 59.15625 C 297.03125 58.128906 297.082031 57.105469 297.179688 56.082031 C 297.28125 55.058594 297.433594 54.042969 297.632812 53.035156 C 297.832031 52.027344 298.082031 51.03125 298.382812 50.046875 C 298.679688 49.0625 299.027344 48.097656 299.417969 47.148438 C 299.8125 46.199219 300.25 45.269531 300.734375 44.363281 C 301.21875 43.457031 301.75 42.578125 302.320312 41.722656 C 302.890625 40.867188 303.5 40.042969 304.152344 39.25 C 304.804688 38.453125 305.496094 37.691406 306.222656 36.964844 C 306.949219 36.238281 307.710938 35.550781 308.503906 34.898438 C 309.296875 34.246094 310.125 33.632812 310.976562 33.0625 C 311.832031 32.492188 312.714844 31.964844 313.621094 31.480469 C 314.527344 30.996094 315.453125 30.558594 316.402344 30.164062 C 317.351562 29.769531 318.320312 29.425781 319.304688 29.125 C 320.285156 28.828125 321.28125 28.578125 322.289062 28.378906 C 323.300781 28.175781 324.316406 28.027344 325.335938 27.925781 C 326.359375 27.824219 327.386719 27.773438 328.414062 27.773438 C 329.441406 27.773438 330.464844 27.824219 331.488281 27.925781 C 332.511719 28.027344 333.527344 28.175781 334.535156 28.378906 C 335.542969 28.578125 336.539062 28.828125 337.523438 29.125 C 338.507812 29.425781 339.472656 29.769531 340.421875 30.164062 C 341.371094 30.558594 342.300781 30.996094 343.207031 31.480469 C 344.113281 31.964844 344.996094 32.492188 345.847656 33.0625 C 346.703125 33.632812 347.527344 34.246094 348.324219 34.898438 C 349.117188 35.550781 349.878906 36.238281 350.605469 36.964844 C 351.332031 37.691406 352.019531 38.453125 352.671875 39.25 C 353.324219 40.042969 353.9375 40.867188 354.507812 41.722656 C 355.078125 42.578125 355.605469 43.457031 356.089844 44.363281 C 356.574219 45.269531 357.015625 46.199219 357.40625 47.148438 C 357.800781 48.097656 358.148438 49.0625 358.445312 50.046875 C 358.742188 51.03125 358.992188 52.027344 359.195312 53.035156 C 359.394531 54.042969 359.546875 55.058594 359.644531 56.082031 C 359.746094 57.105469 359.796875 58.128906 359.796875 59.15625 Z M 359.796875 59.15625 " fill-opacity="1" fill-rule="nonzero"/><path fill="#590696" d="M 359.796875 59.15625 C 359.796875 60.1875 359.746094 61.210938 359.644531 62.234375 C 359.546875 63.257812 359.394531 64.273438 359.195312 65.28125 C 358.992188 66.289062 358.742188 67.285156 358.445312 68.269531 C 358.148438 69.25 357.800781 70.21875 357.40625 71.167969 C 357.015625 72.117188 356.574219 73.046875 356.089844 73.953125 C 355.605469 74.859375 355.078125 75.738281 354.507812 76.59375 C 353.9375 77.449219 353.324219 78.273438 352.671875 79.066406 C 352.019531 79.863281 351.332031 80.621094 350.605469 81.347656 C 349.878906 82.074219 349.117188 82.765625 348.324219 83.417969 C 347.527344 84.070312 346.703125 84.679688 345.847656 85.253906 C 344.996094 85.824219 344.113281 86.351562 343.207031 86.835938 C 342.300781 87.320312 341.371094 87.757812 340.421875 88.152344 C 339.472656 88.546875 338.507812 88.890625 337.523438 89.191406 C 336.539062 89.488281 335.542969 89.738281 334.535156 89.9375 C 333.527344 90.136719 332.511719 90.289062 331.488281 90.390625 C 330.464844 90.492188 329.441406 90.542969 328.414062 90.542969 C 327.386719 90.542969 326.359375 90.492188 325.335938 90.390625 C 324.316406 90.289062 323.300781 90.136719 322.289062 89.9375 C 321.28125 89.738281 320.285156 89.488281 319.304688 89.191406 C 318.320312 88.890625 317.351562 88.546875 316.402344 88.152344 C 315.453125 87.757812 314.527344 87.320312 313.621094 86.835938 C 312.714844 86.351562 311.832031 85.824219 310.976562 85.253906 C 310.125 84.679688 309.296875 84.070312 308.503906 83.417969 C 307.710938 82.765625 306.949219 82.074219 306.222656 81.347656 C 305.496094 80.621094 304.804688 79.863281 304.152344 79.066406 C 303.5 78.273438 302.890625 77.449219 302.320312 76.59375 C 301.75 75.738281 301.21875 74.859375 300.734375 73.953125 C 300.25 73.046875 299.8125 72.117188 299.417969 71.167969 C 299.027344 70.21875 298.679688 69.25 298.382812 68.269531 C 298.082031 67.285156 297.832031 66.289062 297.632812 65.28125 C 297.433594 64.273438 297.28125 63.257812 297.179688 62.234375 C 297.082031 61.210938 297.03125 60.1875 297.03125 59.15625 C 297.03125 58.128906 297.082031 57.105469 297.179688 56.082031 C 297.28125 55.058594 297.433594 54.042969 297.632812 53.035156 C 297.832031 52.027344 298.082031 51.03125 298.382812 50.046875 C 298.679688 49.0625 299.027344 48.097656 299.417969 47.148438 C 299.8125 46.199219 300.25 45.269531 300.734375 44.363281 C 301.21875 43.457031 301.75 42.578125 302.320312 41.722656 C 302.890625 40.867188 303.5 40.042969 304.152344 39.25 C 304.804688 38.453125 305.496094 37.691406 306.222656 36.964844 C 306.949219 36.238281 307.710938 35.550781 308.503906 34.898438 C 309.296875 34.246094 310.125 33.632812 310.976562 33.0625 C 311.832031 32.492188 312.714844 31.964844 313.621094 31.480469 C 314.527344 30.996094 315.453125 30.558594 316.402344 30.164062 C 317.351562 29.769531 318.320312 29.425781 319.304688 29.125 C 320.285156 28.828125 321.28125 28.578125 322.289062 28.378906 C 323.300781 28.175781 324.316406 28.027344 325.335938 27.925781 C 326.359375 27.824219 327.386719 27.773438 328.414062 27.773438 C 329.441406 27.773438 330.464844 27.824219 331.488281 27.925781 C 332.511719 28.027344 333.527344 28.175781 334.535156 28.378906 C 335.542969 28.578125 336.539062 28.828125 337.523438 29.125 C 338.507812 29.425781 339.472656 29.769531 340.421875 30.164062 C 341.371094 30.558594 342.300781 30.996094 343.207031 31.480469 C 344.113281 31.964844 344.996094 32.492188 345.847656 33.0625 C 346.703125 33.632812 347.527344 34.246094 348.324219 34.898438 C 349.117188 35.550781 349.878906 36.238281 350.605469 36.964844 C 351.332031 37.691406 352.019531 38.453125 352.671875 39.25 C 353.324219 40.042969 353.9375 40.867188 354.507812 41.722656 C 355.078125 42.578125 355.605469 43.457031 356.089844 44.363281 C 356.574219 45.269531 357.015625 46.199219 357.40625 47.148438 C 357.800781 48.097656 358.148438 49.0625 358.445312 50.046875 C 358.742188 51.03125 358.992188 52.027344 359.195312 53.035156 C 359.394531 54.042969 359.546875 55.058594 359.644531 56.082031 C 359.746094 57.105469 359.796875 58.128906 359.796875 59.15625 Z M 359.796875 59.15625 " fill-opacity="1" fill-rule="nonzero"/></g><g clip-path="url(#fb6fb7948a)"><path fill="#0096ff" d="M 345.71875 154.488281 L 234.953125 43.722656 C 205.21875 13.964844 125.960938 48.476562 153.085938 75.601562 L 232.738281 155.277344 C 233.851562 156.386719 234.90625 157.550781 235.902344 158.765625 C 236.902344 159.980469 237.835938 161.242188 238.710938 162.550781 C 239.585938 163.855469 240.394531 165.203125 241.136719 166.589844 C 241.878906 167.976562 242.550781 169.394531 243.152344 170.847656 C 243.753906 172.300781 244.285156 173.777344 244.742188 175.285156 C 245.195312 176.789062 245.578125 178.3125 245.886719 179.855469 C 246.191406 181.394531 246.421875 182.949219 246.578125 184.515625 C 246.730469 186.078125 246.808594 187.648438 246.808594 189.21875 C 246.808594 190.792969 246.730469 192.363281 246.578125 193.925781 C 246.421875 195.492188 246.191406 197.042969 245.886719 198.585938 C 245.578125 200.128906 245.195312 201.652344 244.742188 203.15625 C 244.285156 204.660156 243.753906 206.140625 243.152344 207.59375 C 242.550781 209.046875 241.878906 210.464844 241.136719 211.851562 C 240.394531 213.238281 239.585938 214.585938 238.710938 215.890625 C 237.835938 217.199219 236.902344 218.460938 235.902344 219.675781 C 234.90625 220.890625 233.851562 222.050781 232.738281 223.164062 L 153.132812 302.792969 C 128.863281 327.035156 205.515625 362.800781 234.953125 333.363281 L 345.71875 222.597656 C 346.835938 221.484375 347.898438 220.320312 348.902344 219.101562 C 349.90625 217.882812 350.851562 216.621094 351.730469 215.308594 C 352.609375 214 353.421875 212.648438 354.167969 211.257812 C 354.914062 209.867188 355.59375 208.441406 356.199219 206.984375 C 356.804688 205.527344 357.335938 204.042969 357.796875 202.53125 C 358.257812 201.023438 358.640625 199.492188 358.949219 197.945312 C 359.257812 196.398438 359.492188 194.839844 359.648438 193.265625 C 359.800781 191.695312 359.878906 190.121094 359.878906 188.542969 C 359.878906 186.964844 359.800781 185.390625 359.648438 183.820312 C 359.492188 182.25 359.257812 180.6875 358.949219 179.140625 C 358.640625 177.59375 358.257812 176.0625 357.796875 174.554688 C 357.335938 173.042969 356.804688 171.558594 356.199219 170.101562 C 355.59375 168.644531 354.914062 167.222656 354.167969 165.828125 C 353.421875 164.4375 352.609375 163.089844 351.730469 161.777344 C 350.851562 160.46875 349.90625 159.203125 348.902344 157.984375 C 347.898438 156.769531 346.835938 155.601562 345.71875 154.488281 Z M 345.71875 154.488281 " fill-opacity="1" fill-rule="nonzero"/></g><g clip-path="url(#37f0138450)"><path fill="#5800ff" d="M 345.71875 154.488281 L 234.953125 43.722656 C 205.21875 13.964844 125.960938 48.476562 153.085938 75.601562 L 232.738281 155.277344 C 234.644531 157.183594 236.382812 159.234375 237.941406 161.4375 C 239.503906 163.636719 240.871094 165.953125 242.039062 168.382812 C 243.207031 170.8125 244.164062 173.324219 244.910156 175.917969 C 245.652344 178.511719 246.175781 181.148438 246.472656 183.828125 C 273.917969 216.050781 296.734375 247.335938 301.484375 266.828125 L 345.792969 222.523438 C 346.90625 221.410156 347.964844 220.242188 348.964844 219.027344 C 349.964844 217.808594 350.902344 216.542969 351.78125 215.234375 C 352.65625 213.921875 353.464844 212.570312 354.210938 211.183594 C 354.953125 209.792969 355.625 208.367188 356.226562 206.910156 C 356.832031 205.457031 357.359375 203.972656 357.816406 202.464844 C 358.273438 200.957031 358.65625 199.429688 358.964844 197.882812 C 359.269531 196.335938 359.5 194.777344 359.652344 193.207031 C 359.804688 191.640625 359.882812 190.066406 359.878906 188.492188 C 359.878906 186.914062 359.800781 185.34375 359.640625 183.773438 C 359.484375 182.207031 359.253906 180.648438 358.941406 179.101562 C 358.632812 177.558594 358.246094 176.03125 357.789062 174.523438 C 357.328125 173.015625 356.792969 171.535156 356.1875 170.078125 C 355.582031 168.625 354.90625 167.203125 354.160156 165.8125 C 353.414062 164.425781 352.601562 163.074219 351.722656 161.765625 C 350.84375 160.457031 349.902344 159.195312 348.898438 157.980469 C 347.894531 156.765625 346.835938 155.601562 345.71875 154.488281 Z M 345.71875 154.488281 " fill-opacity="1" fill-rule="nonzero"/></g></svg>